<?xml version="1.0" encoding="iso-8859-1"?>
<!-- Generator: Adobe Illustrator 19.0.0, SVG Export Plug-In . SVG Version: 6.00 Build 0)  -->
<svg version="1.1" id="Capa_1" xmlns="http://www.w3.org/2000/svg" xmlns:xlink="http://www.w3.org/1999/xlink" x="0px" y="0px"
	 viewBox="0 0 512 512" style="enable-background:new 0 0 512 512;" xml:space="preserve">
<path style="fill:#AAC4DA;" d="M469.333,64v352L256,501.333L42.667,416V64h42.667v32v288L256,448l170.667-64V96V64H469.333z"/>
<path style="fill:#FFE451;" d="M426.667,96v288L256,448L85.333,384V96V64h341.333V96z"/>
<path style="fill:#FFCE51;" d="M469.333,32v32H42.667V32C42.702,20.233,52.233,10.702,64,10.667h384
	C459.768,10.702,469.298,20.233,469.333,32z"/>
<path style="fill:#D9EEF7;" d="M256,160c23.511-0.054,42.614,18.961,42.669,42.473c0.035,15.265-8.105,29.38-21.335,36.994v69.867
	h-42.667v-69.867c-20.377-11.728-27.389-37.754-15.661-58.131C226.62,168.105,240.735,159.965,256,160L256,160z"/>
<g>
	<path style="fill:#4C5B66;" d="M501.333,53.333H480V32c0-17.673-14.327-32-32-32H64C46.327,0,32,14.327,32,32v21.333H10.667v21.333
		H32V416c-0.003,4.362,2.65,8.287,6.699,9.909l213.333,85.333c2.549,1.01,5.387,1.01,7.936,0l213.333-85.333
		c4.049-1.623,6.702-5.547,6.699-9.909V74.667h21.333V53.333z M53.333,32c0-5.891,4.776-10.667,10.667-10.667h384
		c5.891,0,10.667,4.776,10.667,10.667v21.333H53.333V32z M458.667,408.779L256,489.845L53.333,408.779V74.667h405.333V408.779z"/>
	<path style="fill:#4C5B66;" d="M81.589,393.995l170.667,64c2.409,0.891,5.058,0.891,7.467,0l170.667-64
		c4.175-1.555,6.943-5.54,6.944-9.995V106.667c0-5.891-4.776-10.667-10.667-10.667h-128v21.333H416v259.275l-149.333,56v-69.941
		h-21.333v69.941L96,376.608V117.333h117.333V96h-128c-5.891,0-10.667,4.776-10.667,10.667V384
		C74.664,388.449,77.423,392.433,81.589,393.995z"/>
	<path style="fill:#4C5B66;" d="M224,245.152v64.181c0,5.891,4.776,10.667,10.667,10.667h42.667c5.891,0,10.667-4.776,10.667-10.667
		v-64.181c13.448-9.976,21.364-25.741,21.333-42.485c0-29.455-23.878-53.333-53.333-53.333s-53.333,23.878-53.333,53.333
		C202.636,219.411,210.552,235.176,224,245.152z M256,170.667c17.62-0.054,31.948,14.185,32.002,31.805
		c0.035,11.485-6.105,22.102-16.077,27.8c-3.258,1.917-5.259,5.414-5.259,9.195v59.2h-21.333v-59.2c0-3.78-2-7.278-5.259-9.195
		c-15.299-8.741-20.616-28.229-11.875-43.528C233.898,176.772,244.515,170.631,256,170.667L256,170.667z"/>
	<path style="fill:#4C5B66;" d="M245.333,96h21.333v21.333h-21.333V96z"/>
</g>
<g>
</g>
<g>
</g>
<g>
</g>
<g>
</g>
<g>
</g>
<g>
</g>
<g>
</g>
<g>
</g>
<g>
</g>
<g>
</g>
<g>
</g>
<g>
</g>
<g>
</g>
<g>
</g>
<g>
</g>
</svg>
