<svg height="512pt" viewBox="-11 0 512 512" width="512pt" xmlns="http://www.w3.org/2000/svg"><path d="m10.667969 373.332031h149.332031v128h-149.332031zm0 0" fill="#35dc86"/><path d="m330.667969 373.332031h149.332031v128h-149.332031zm0 0" fill="#35dc86"/><path d="m330.667969 373.332031v128h-170.667969v-170.664062h170.667969zm0 0" fill="#35dc86"/><path d="m309.332031 330.667969h-128c-.011719-11.320313 4.476563-22.183594 12.484375-30.1875 8.003906-8.003907 18.863282-12.496094 30.183594-12.480469h42.667969c23.5625 0 42.664062 19.101562 42.664062 42.667969zm0 0" fill="#fed049"/><path d="m320 21.332031v106.667969c.042969 3.539062-.242188 7.074219-.851562 10.558594-4.511719 32.886718-30.371094 58.746094-63.253907 63.253906-6.996093 1.136719-14.128906 1.136719-21.121093 0-32.886719-4.507812-58.742188-30.367188-63.253907-63.253906-.609375-3.484375-.894531-7.019532-.851562-10.558594v-117.332031h149.332031zm0 0" fill="#fed049"/><g fill="#474c54"><path d="m480 362.667969h-138.667969v-32c0-5.890625-4.773437-10.667969-10.664062-10.667969h-11.734375c-5.105469-24.816406-26.933594-42.632812-52.265625-42.667969h-10.667969v-42.664062c5.890625 0 10.667969-4.777344 10.667969-10.667969v-13.695312c29.960937-7.628907 53.359375-31.015626 61-60.972657h13.664062c29.441407-.035156 53.300781-23.890625 53.335938-53.332031v-74.667969c0-5.890625-4.777344-10.664062-10.667969-10.664062h-53.332031c0-5.890625-4.777344-10.667969-10.667969-10.667969h-149.332031c-5.890625 0-10.667969 4.777344-10.667969 10.667969h-53.332031c-5.890625 0-10.667969 4.773437-10.667969 10.664062v74.667969c.035156 29.441406 23.894531 53.296875 53.332031 53.332031h13.699219c7.625 29.960938 31.011719 53.359375 60.96875 61.003907v13.664062c0 5.890625 4.777344 10.667969 10.667969 10.667969v42.664062h-10.667969c-25.367188-.054687-47.242188 17.804688-52.265625 42.667969h-11.734375c-5.890625 0-10.667969 4.777344-10.667969 10.667969v32h-138.664062c-5.890625 0-10.667969 4.773437-10.667969 10.664062v128c0 5.890625 4.777344 10.667969 10.667969 10.667969h469.332031c5.890625 0 10.667969-4.777344 10.667969-10.667969v-128c0-5.890625-4.777344-10.664062-10.667969-10.664062zm-330.667969-234.667969c-17.671875 0-32-14.328125-32-32v-64h42.667969v96zm224-96v64c0 17.671875-14.324219 32-32 32h-10.664062v-96zm-191.328125 104.597656c-.488281-2.839844-.714844-5.71875-.671875-8.597656v-106.667969h128v106.667969c.039063 3.058594-.214843 6.109375-.757812 9.121094-3.894531 28.121094-26 50.226562-54.121094 54.121094l-.523437.085937c-5.867188.972656-11.859376.945313-17.714844-.085937-28.289063-3.976563-50.460938-26.324219-54.210938-54.644532zm19.296875 171.476563c6.023438-6.011719 14.1875-9.394531 22.699219-9.40625h42.667969c13.511719.054687 25.53125 8.59375 30.035156 21.332031h-102.75c1.546875-4.464844 4.054687-8.535156 7.347656-11.925781zm-30.632812 33.257812h149.332031v149.335938h-149.332031zm-21.335938 149.335938h-128v-106.667969h128zm320 0h-128v-106.667969h128zm0 0"/><path d="m277.332031 437.332031h-21.332031v-53.332031c0-5.890625-4.777344-10.667969-10.667969-10.667969h-21.332031v21.335938h10.667969v42.664062h-21.335938v21.335938h64zm0 0"/><path d="m53.332031 202.667969h21.335938v-21.335938h21.332031v-21.332031h-21.332031v-21.332031h-21.335938v21.332031h-21.332031v21.332031h21.332031zm0 0"/><path d="m394.667969 181.332031v21.335938h-21.335938v21.332031h21.335938v21.332031h21.332031v-21.332031h21.332031v-21.332031h-21.332031v-21.335938zm0 0"/><path d="m394.667969 266.667969h21.332031v74.664062h-21.332031zm0 0"/><path d="m53.332031 224h21.335938v117.332031h-21.335938zm0 0"/></g></svg>